v 0.270598 -0.270598 0.923880
v 0.500000 -0.500000 0.707107
v 0.653281 -0.653281 0.382683
v 0.707107 -0.707107 0.000000
v 0.653281 -0.653281 -0.382683
v 0.500000 -0.500000 -0.707107
v 0.270598 -0.270598 -0.923880
v 0.000000 -0.382683 0.923880
v 0.000000 -0.707107 0.707107
v 0.000000 -0.923879 0.382683
v 0.000000 -1.000000 0.000000
v 0.000000 -0.923879 -0.382683
v 0.000000 -0.707107 -0.707107
v 0.000000 -0.382683 -0.923880
v -0.270598 -0.270598 0.923880
v -0.500000 -0.500000 0.707107
v -0.653281 -0.653281 0.382683
v -0.707107 -0.707107 0.000000
v -0.653281 -0.653281 -0.382683
v -0.500000 -0.500000 -0.707107
v -0.270598 -0.270598 -0.923880
v -0.382683 0.000000 0.923880
v -0.707107 0.000000 0.707107
v -0.923879 0.000000 0.382683
v -1.000000 0.000000 0.000000
v -0.923879 0.000000 -0.382683
v -0.707107 0.000000 -0.707107
v -0.382683 0.000000 -0.923880
v -0.270598 0.270598 0.923880
v -0.500000 0.500000 0.707107
v -0.653281 0.653281 0.382683
v -0.707107 0.707107 0.000000
v -0.653281 0.653281 -0.382683
v -0.500000 0.500000 -0.707107
v -0.270598 0.270598 -0.923880
v 0.000000 0.382683 0.923880
v 0.000000 0.707107 0.707107
v 0.000000 0.923879 0.382683
v 0.000000 1.000000 0.000000
v 0.000000 0.923879 -0.382683
v 0.000000 0.707107 -0.707107
v 0.000000 0.382683 -0.923880
v 0.270598 0.270598 0.923880
v 0.500000 0.500000 0.707107
v 0.653281 0.653281 0.382683
v 0.707107 0.707107 0.000000
v 0.653281 0.653281 -0.382683
v 0.500000 0.500000 -0.707107
v 0.270598 0.270598 -0.923880
v 0.000000 0.000000 -1.000000
v 0.000000 0.000000 1.000000
v 0.382683 0.000000 0.923880
v 0.707107 0.000000 0.707107
v 0.923879 0.000000 0.382683
v 1.000000 0.000000 0.000000
v 0.923879 0.000000 -0.382683
v 0.707107 0.000000 -0.707107
v 0.382683 0.000000 -0.923880
vn 0.9087 -0.3764 0.1807
vn 0.5414 -0.2243 0.8103
vn 0.5414 -0.2243 -0.8103
vn 0.9087 -0.3764 -0.1807
vn 0.7862 -0.3256 0.5253
vn 0.1945 -0.0805 0.9776
vn 0.1945 -0.0805 -0.9776
vn 0.7862 -0.3256 -0.5253
vn 0.2243 -0.5414 -0.8103
vn 0.3764 -0.9087 -0.1807
vn 0.3256 -0.7862 0.5253
vn 0.0805 -0.1945 0.9776
vn 0.0805 -0.1945 -0.9776
vn 0.3256 -0.7862 -0.5253
vn 0.3764 -0.9087 0.1807
vn 0.2243 -0.5414 0.8103
vn -0.0805 -0.1945 0.9776
vn -0.0805 -0.1945 -0.9776
vn -0.3256 -0.7862 -0.5253
vn -0.3764 -0.9087 0.1807
vn -0.2243 -0.5414 0.8103
vn -0.2243 -0.5414 -0.8103
vn -0.3764 -0.9087 -0.1807
vn -0.3256 -0.7862 0.5253
vn -0.7862 -0.3256 -0.5253
vn -0.9087 -0.3764 0.1807
vn -0.5414 -0.2243 0.8103
vn -0.5414 -0.2243 -0.8103
vn -0.9087 -0.3764 -0.1807
vn -0.7862 -0.3256 0.5253
vn -0.1945 -0.0805 0.9776
vn -0.1945 -0.0805 -0.9776
vn -0.5414 0.2243 -0.8103
vn -0.9087 0.3764 -0.1807
vn -0.7862 0.3256 0.5253
vn -0.1945 0.0805 0.9776
vn -0.1945 0.0805 -0.9776
vn -0.7862 0.3256 -0.5253
vn -0.9087 0.3764 0.1807
vn -0.5414 0.2243 0.8103
vn -0.3764 0.9087 -0.1807
vn -0.3256 0.7862 0.5253
vn -0.0805 0.1945 0.9776
vn -0.0805 0.1945 -0.9776
vn -0.3256 0.7862 -0.5253
vn -0.3764 0.9087 0.1807
vn -0.2243 0.5414 0.8103
vn -0.2243 0.5414 -0.8103
vn 0.0805 0.1945 -0.9776
vn 0.3256 0.7862 -0.5253
vn 0.3764 0.9087 0.1807
vn 0.2243 0.5414 0.8103
vn 0.2243 0.5414 -0.8103
vn 0.3764 0.9087 -0.1807
vn 0.3256 0.7862 0.5253
vn 0.0805 0.1945 0.9776
vn 0.9087 0.3764 0.1807
vn 0.5414 0.2243 0.8103
vn 0.5414 0.2243 -0.8103
vn 0.9087 0.3764 -0.1807
vn 0.7862 0.3256 0.5253
vn 0.1945 0.0805 0.9776
vn 0.1945 0.0805 -0.9776
vn 0.7862 0.3256 -0.5253
s 0
f 54//1 4//1 55//1
f 52//2 2//2 53//2
f 57//3 7//3 58//3
f 56//4 4//4 5//4
f 54//5 2//5 3//5
f 52//6 51//6 1//6
f 50//7 58//7 7//7
f 56//8 6//8 57//8
f 6//9 14//9 7//9
f 4//10 12//10 5//10
f 3//11 9//11 10//11
f 1//12 51//12 8//12
f 50//13 7//13 14//13
f 5//14 13//14 6//14
f 3//15 11//15 4//15
f 1//16 9//16 2//16
f 8//17 51//17 15//17
f 50//18 14//18 21//18
f 12//19 20//19 13//19
f 10//20 18//20 11//20
f 8//21 16//21 9//21
f 13//22 21//22 14//22
f 12//23 18//23 19//23
f 10//24 16//24 17//24
f 19//25 27//25 20//25
f 17//26 25//26 18//26
f 15//27 23//27 16//27
f 20//28 28//28 21//28
f 19//29 25//29 26//29
f 16//30 24//30 17//30
f 15//31 51//31 22//31
f 50//32 21//32 28//32
f 27//33 35//33 28//33
f 25//34 33//34 26//34
f 23//35 31//35 24//35
f 22//36 51//36 29//36
f 50//37 28//37 35//37
f 26//38 34//38 27//38
f 25//39 31//39 32//39
f 22//40 30//40 23//40
f 33//41 39//41 40//41
f 30//42 38//42 31//42
f 29//43 51//43 36//43
f 50//44 35//44 42//44
f 33//45 41//45 34//45
f 31//46 39//46 32//46
f 29//47 37//47 30//47
f 34//48 42//48 35//48
f 50//49 42//49 49//49
f 40//50 48//50 41//50
f 39//51 45//51 46//51
f 36//52 44//52 37//52
f 41//53 49//53 42//53
f 39//54 47//54 40//54
f 37//55 45//55 38//55
f 36//56 51//56 43//56
f 45//57 55//57 46//57
f 43//58 53//58 44//58
f 48//59 58//59 49//59
f 47//60 55//60 56//60
f 44//61 54//61 45//61
f 43//62 51//62 52//62
f 50//63 49//63 58//63
f 47//64 57//64 48//64
f 54//1 3//1 4//1
f 52//2 1//2 2//2
f 57//3 6//3 7//3
f 56//4 55//4 4//4
f 54//5 53//5 2//5
f 56//8 5//8 6//8
f 6//9 13//9 14//9
f 4//10 11//10 12//10
f 3//11 2//11 9//11
f 5//14 12//14 13//14
f 3//15 10//15 11//15
f 1//16 8//16 9//16
f 12//19 19//19 20//19
f 10//20 17//20 18//20
f 8//21 15//21 16//21
f 13//22 20//22 21//22
f 12//23 11//23 18//23
f 10//24 9//24 16//24
f 19//25 26//25 27//25
f 17//26 24//26 25//26
f 15//27 22//27 23//27
f 20//28 27//28 28//28
f 19//29 18//29 25//29
f 16//30 23//30 24//30
f 27//33 34//33 35//33
f 25//34 32//34 33//34
f 23//35 30//35 31//35
f 26//38 33//38 34//38
f 25//39 24//39 31//39
f 22//40 29//40 30//40
f 33//41 32//41 39//41
f 30//42 37//42 38//42
f 33//45 40//45 41//45
f 31//46 38//46 39//46
f 29//47 36//47 37//47
f 34//48 41//48 42//48
f 40//50 47//50 48//50
f 39//51 38//51 45//51
f 36//52 43//52 44//52
f 41//53 48//53 49//53
f 39//54 46//54 47//54
f 37//55 44//55 45//55
f 45//57 54//57 55//57
f 43//58 52//58 53//58
f 48//59 57//59 58//59
f 47//60 46//60 55//60
f 44//61 53//61 54//61
f 47//64 56//64 57//64
